<svg width="498" height="370" viewBox="0 0 498 370" fill="none" xmlns="http://www.w3.org/2000/svg">
<g filter="url(#filter0_d)">
<path d="M45.147 148.148C53.589 148.148 61.59 145.691 69.15 140.777C76.71 135.863 80.49 130.067 80.49 123.389C80.49 118.601 78.6 114.632 74.82 111.482C68.268 106.19 59.133 103.544 47.415 103.544C44.517 103.544 42.942 103.607 42.69 103.733C42.564 103.859 42.501 109.718 42.501 121.31C42.501 132.902 43.068 141.785 44.202 147.959C44.454 148.085 44.769 148.148 45.147 148.148ZM59.889 80.675C63.165 79.289 65.937 77.273 68.205 74.627C70.599 71.855 71.796 69.02 71.796 66.122C71.796 63.098 70.914 60.704 69.15 58.94C67.386 57.176 65.181 55.853 62.535 54.971C59.889 54.089 57.306 53.459 54.786 53.081C52.392 52.703 50.061 52.514 47.793 52.514C45.525 52.514 44.265 52.64 44.013 52.892C43.887 53.018 43.635 58.184 43.257 68.39C43.005 78.47 42.879 83.825 42.879 84.455C43.005 84.581 43.635 84.644 44.769 84.644C46.029 84.644 48.045 84.329 50.817 83.699C53.589 82.943 56.613 81.935 59.889 80.675ZM18.876 134.54L19.821 62.342C19.821 57.302 19.695 54.656 19.443 54.404C18.057 53.018 16.23 49.994 13.962 45.332C11.694 40.544 10.56 37.457 10.56 36.071L10.749 35.504C11.505 34.874 15.474 34.307 22.656 33.803C29.964 33.299 37.146 33.047 44.202 33.047C51.384 33.047 57.936 33.488 63.858 34.37C69.78 35.252 75.513 36.638 81.057 38.528C86.727 40.418 91.263 43.253 94.665 47.033C98.067 50.687 99.768 54.845 99.768 59.507C99.768 64.043 98.76 68.201 96.744 71.981C94.854 75.635 92.46 78.722 89.562 81.242C85.152 85.022 80.868 87.92 76.71 89.936C76.458 90.188 76.332 90.377 76.332 90.503C76.458 90.629 77.34 90.944 78.978 91.448C80.742 91.952 82.38 92.582 83.892 93.338C85.53 93.968 87.483 94.85 89.751 95.984C92.019 97.118 94.098 98.504 95.988 100.142C97.878 101.654 99.642 103.418 101.28 105.434C104.934 109.718 106.761 115.577 106.761 123.011C106.761 130.319 104.493 137.186 99.957 143.612C95.421 150.038 89.373 155.078 81.813 158.732C66.693 166.04 49.494 169.694 30.216 169.694L20.577 169.127C20.199 168.623 19.821 164.087 19.443 155.519C19.065 146.825 18.876 139.832 18.876 134.54ZM151.384 42.875L150.25 120.743C150.25 130.445 150.439 137.627 150.817 142.289C152.833 142.793 156.046 143.045 160.456 143.045C164.992 143.045 168.835 142.667 171.985 141.911C175.261 141.155 177.97 139.832 180.112 137.942C182.38 135.926 184.207 134.099 185.593 132.461C186.979 130.697 188.176 128.114 189.184 124.712C190.696 120.176 192.208 114.191 193.72 106.757C193.72 106.631 194.602 106.568 196.366 106.568C198.256 106.568 201.154 107.45 205.06 109.214C209.092 110.852 211.108 112.112 211.108 112.994C211.108 122.696 210.604 133.658 209.596 145.88C208.588 159.488 207.328 166.292 205.816 166.292C204.43 166.292 201.658 165.725 197.5 164.591C193.342 163.583 190.192 162.638 188.05 161.756C176.71 163.646 162.031 164.654 144.013 164.78L134.563 164.969L127.003 164.024C126.499 163.52 126.247 157.976 126.247 147.392L127.003 75.005C127.003 60.263 126.625 52.451 125.869 51.569C125.239 50.561 124.105 48.167 122.467 44.387C120.829 40.481 120.01 37.961 120.01 36.827C120.01 36.323 121.396 35.63 124.168 34.748C131.098 32.228 137.209 30.968 142.501 30.968C147.793 30.968 150.565 31.157 150.817 31.535C151.195 31.913 151.384 35.693 151.384 42.875ZM249.118 43.064L247.606 95.039C247.606 127.799 254.536 144.179 268.396 144.179C272.554 144.179 276.082 143.36 278.98 141.722C281.878 139.958 284.524 136.808 286.918 132.272C291.832 123.452 294.289 106.442 294.289 81.242C294.289 55.916 293.596 39.032 292.21 30.59C293.596 29.96 295.36 29.645 297.502 29.645C306.952 29.645 313.252 31.283 316.402 34.559C317.536 40.229 318.103 58.184 318.103 88.424C318.103 119.294 313 140.462 302.794 151.928C297.754 157.598 292.273 161.567 286.351 163.835C280.555 166.103 273.814 167.237 266.128 167.237C251.134 167.237 240.235 161.567 233.431 150.227C226.627 138.761 223.225 119.042 223.225 91.07C223.225 80.486 223.351 72.233 223.603 66.311C223.981 60.389 224.107 57.365 223.981 57.239C223.225 55.853 222.28 53.459 221.146 50.057C220.138 46.655 219.634 44.198 219.634 42.686C219.634 42.182 220.831 41.426 223.225 40.418C229.399 38.024 235.132 36.827 240.424 36.827C245.716 36.827 248.488 36.953 248.74 37.205C248.992 37.457 249.118 39.41 249.118 43.064ZM343.206 87.101L343.395 66.689C343.395 61.271 343.269 58.31 343.017 57.806C341.631 56.42 339.804 53.081 337.536 47.789C335.394 42.497 334.323 39.095 334.323 37.583C335.709 36.197 357.822 35.504 400.662 35.504C411.246 35.504 416.538 35.756 416.538 36.26C416.538 38.906 415.908 41.804 414.648 44.954C413.514 48.104 412.254 50.624 410.868 52.514C409.608 54.404 408.663 55.286 408.033 55.16C407.529 54.908 404.946 54.782 400.284 54.782C395.748 54.782 389.385 55.097 381.195 55.727C373.005 56.231 368.532 56.861 367.776 57.617C367.02 58.373 366.642 65.303 366.642 78.407L366.831 86.345C371.871 86.219 379.305 86.156 389.133 86.156C398.961 86.156 403.875 86.345 403.875 86.723C403.875 91.259 402.363 96.425 399.339 102.221C398.205 104.237 397.512 105.182 397.26 105.056C393.984 105.056 388.377 105.371 380.439 106.001C372.501 106.505 367.902 107.135 366.642 107.891C366.516 108.017 366.453 113.309 366.453 123.767C366.453 134.225 366.768 139.769 367.398 140.399C369.414 142.415 380.25 143.423 399.906 143.423C407.844 143.423 413.199 143.234 415.971 142.856C418.743 142.352 420.129 142.163 420.129 142.289C420.129 145.313 419.121 148.904 417.105 153.062C415.089 157.22 412.947 160.37 410.679 162.512C409.419 163.772 398.079 164.402 376.659 164.402C355.365 164.402 344.34 163.898 343.584 162.89C342.828 162.26 342.45 156.212 342.45 144.746C342.45 133.154 342.576 120.932 342.828 108.08C340.56 106.064 338.355 102.914 336.213 98.63C334.197 94.346 333.189 90.692 333.189 87.668C333.189 87.542 336.528 87.353 343.206 87.101Z" fill="url(#paint0_linear)"/>
</g>
<g filter="url(#filter1_d)">
<path d="M141.162 207.182C141.162 217.94 139.097 232.664 134.968 251.355C130.839 269.937 126.601 286.128 122.254 299.929C117.907 313.73 115.082 321.228 113.778 322.423C112.474 323.727 109.431 324.868 104.65 325.846C99.9773 326.824 96.3913 327.313 93.892 327.313C91.3927 327.313 90.143 327.15 90.143 326.824C89.9257 325.955 88.8933 320.413 87.046 310.198C81.6127 281.619 78.5157 266.46 77.755 264.721C76.9943 262.874 76.5053 261.95 76.288 261.95L75.473 262.928C72.7563 269.665 69.6593 280.206 66.182 294.55C62.8133 308.785 61.129 316.935 61.129 319C61.129 319.435 60.0967 320.032 58.032 320.793C52.3813 322.858 46.8393 323.89 41.406 323.89C40.2107 323.89 39.45 323.727 39.124 323.401C36.19 320.467 31.6803 304.493 25.595 275.479C19.6183 246.356 16.63 225.873 16.63 214.028C16.63 213.811 17.1733 213.376 18.26 212.724C21.9547 210.877 25.9753 210.007 30.322 210.116C34.7773 210.116 37.005 210.225 37.005 210.442C37.7657 224.569 39.3413 239.456 41.732 255.104C44.2313 270.643 46.622 281.293 48.904 287.052C49.1213 287.813 49.3387 288.193 49.556 288.193C49.882 288.193 50.208 287.813 50.534 287.052C59.4447 252.605 64.878 234.349 66.834 232.284C70.746 230.763 76.2337 230.002 83.297 230.002C87.209 230.219 89.328 230.491 89.654 230.817C89.98 231.143 91.0667 235.707 92.914 244.509C94.7613 253.202 96.7717 262.874 98.945 273.523C101.118 284.064 102.422 290.421 102.857 292.594C103.4 294.659 104.107 294.55 104.976 292.268C106.823 287.161 109.16 277.87 111.985 264.395C114.81 250.92 116.223 238.206 116.223 226.253C116.223 225.058 115.191 223.917 113.126 222.83C111.17 221.635 109.16 220.928 107.095 220.711C106.986 220.385 106.932 219.733 106.932 218.755C106.932 217.668 107.149 216.147 107.584 214.191C108.127 212.126 108.562 210.931 108.888 210.605C118.777 207.997 128.665 206.693 138.554 206.693C140.293 206.91 141.162 207.073 141.162 207.182ZM157.98 255.267L158.143 237.663C158.143 232.99 158.035 230.437 157.817 230.002C156.622 228.807 155.046 225.927 153.09 221.363C151.243 216.799 150.319 213.865 150.319 212.561C151.515 211.366 170.586 210.768 207.532 210.768C216.66 210.768 221.224 210.985 221.224 211.42C221.224 213.702 220.681 216.201 219.594 218.918C218.616 221.635 217.53 223.808 216.334 225.438C215.248 227.068 214.433 227.829 213.889 227.72C213.455 227.503 211.227 227.394 207.206 227.394C203.294 227.394 197.807 227.666 190.743 228.209C183.68 228.644 179.822 229.187 179.17 229.839C178.518 230.491 178.192 236.468 178.192 247.769L178.355 254.615C182.702 254.506 189.113 254.452 197.589 254.452C206.065 254.452 210.303 254.615 210.303 254.941C210.303 258.853 208.999 263.308 206.391 268.307C205.413 270.046 204.816 270.861 204.598 270.752C201.773 270.752 196.937 271.024 190.091 271.567C183.245 272.002 179.279 272.545 178.192 273.197C178.084 273.306 178.029 277.87 178.029 286.889C178.029 295.908 178.301 300.69 178.844 301.233C180.583 302.972 189.928 303.841 206.88 303.841C213.726 303.841 218.345 303.678 220.735 303.352C223.126 302.917 224.321 302.754 224.321 302.863C224.321 305.471 223.452 308.568 221.713 312.154C219.975 315.74 218.127 318.457 216.171 320.304C215.085 321.391 205.305 321.934 186.831 321.934C168.467 321.934 158.958 321.499 158.306 320.63C157.654 320.087 157.328 314.871 157.328 304.982C157.328 294.985 157.437 284.444 157.654 273.36C155.698 271.621 153.797 268.905 151.949 265.21C150.211 261.515 149.341 258.364 149.341 255.756C149.341 255.647 152.221 255.484 157.98 255.267ZM244.415 255.267L244.578 237.663C244.578 232.99 244.469 230.437 244.252 230.002C243.057 228.807 241.481 225.927 239.525 221.363C237.678 216.799 236.754 213.865 236.754 212.561C237.949 211.366 257.02 210.768 293.967 210.768C303.095 210.768 307.659 210.985 307.659 211.42C307.659 213.702 307.116 216.201 306.029 218.918C305.051 221.635 303.964 223.808 302.769 225.438C301.682 227.068 300.867 227.829 300.324 227.72C299.889 227.503 297.662 227.394 293.641 227.394C289.729 227.394 284.241 227.666 277.178 228.209C270.115 228.644 266.257 229.187 265.605 229.839C264.953 230.491 264.627 236.468 264.627 247.769L264.79 254.615C269.137 254.506 275.548 254.452 284.024 254.452C292.5 254.452 296.738 254.615 296.738 254.941C296.738 258.853 295.434 263.308 292.826 268.307C291.848 270.046 291.25 270.861 291.033 270.752C288.208 270.752 283.372 271.024 276.526 271.567C269.68 272.002 265.714 272.545 264.627 273.197C264.518 273.306 264.464 277.87 264.464 286.889C264.464 295.908 264.736 300.69 265.279 301.233C267.018 302.972 276.363 303.841 293.315 303.841C300.161 303.841 304.779 303.678 307.17 303.352C309.561 302.917 310.756 302.754 310.756 302.863C310.756 305.471 309.887 308.568 308.148 312.154C306.409 315.74 304.562 318.457 302.606 320.304C301.519 321.391 291.739 321.934 273.266 321.934C254.901 321.934 245.393 321.499 244.741 320.63C244.089 320.087 243.763 314.871 243.763 304.982C243.763 294.985 243.872 284.444 244.089 273.36C242.133 271.621 240.231 268.905 238.384 265.21C236.645 261.515 235.776 258.364 235.776 255.756C235.776 255.647 238.656 255.484 244.415 255.267ZM326.285 315.74L328.078 239.619C328.078 231.904 327.807 227.666 327.263 226.905C326.72 226.036 325.742 223.971 324.329 220.711C322.917 217.342 322.21 215.169 322.21 214.191C322.21 213.756 323.297 213.159 325.47 212.398C331.338 210.225 336.5 209.138 340.955 209.138C345.519 209.138 347.91 209.301 348.127 209.627C348.345 209.844 348.453 211.963 348.453 215.984C348.453 219.896 348.182 230.002 347.638 246.302C347.638 246.954 347.747 247.28 347.964 247.28C348.182 247.28 348.453 247.063 348.779 246.628C354.865 238.587 362.2 229.893 370.784 220.548C379.369 211.094 384.531 206.367 386.269 206.367C388.117 206.367 390.453 206.965 393.278 208.16C396.104 209.355 398.44 210.659 400.287 212.072C402.243 213.376 403.221 214.245 403.221 214.68V214.843C398.983 217.56 394.256 221.309 389.04 226.09C383.824 230.871 379.586 235.055 376.326 238.641C373.066 242.227 371.436 244.292 371.436 244.835C371.436 248.856 375.837 260.592 384.639 280.043C393.55 299.386 400.831 311.937 406.481 317.696C406.59 317.805 406.318 318.185 405.666 318.837C405.123 319.38 404.199 320.032 402.895 320.793C401.591 321.662 400.124 322.477 398.494 323.238C394.691 325.194 390.67 326.172 386.432 326.172C382.52 322.26 378.174 314.979 373.392 304.33C368.611 293.572 364.645 283.846 361.493 275.153C358.451 266.46 356.821 262.113 356.603 262.113C356.06 262.113 354.321 264.395 351.387 268.959C348.562 273.414 347.149 276.077 347.149 276.946V287.541C347.149 306.232 347.475 317.153 348.127 320.304C348.236 320.63 347.638 321.119 346.334 321.771C342.64 323.618 337.967 324.542 332.316 324.542L326.774 323.727C326.448 323.401 326.285 320.739 326.285 315.74Z" fill="white"/>
</g>
<defs>
<filter id="filter0_d" x="0.559998" y="29.645" width="429.569" height="160.049" filterUnits="userSpaceOnUse" color-interpolation-filters="sRGB">
<feFlood flood-opacity="0" result="BackgroundImageFix"/>
<feColorMatrix in="SourceAlpha" type="matrix" values="0 0 0 0 0 0 0 0 0 0 0 0 0 0 0 0 0 0 127 0"/>
<feOffset dy="10"/>
<feGaussianBlur stdDeviation="5"/>
<feColorMatrix type="matrix" values="0 0 0 0 0 0 0 0 0 0 0 0 0 0 0 0 0 0 0.25 0"/>
<feBlend mode="normal" in2="BackgroundImageFix" result="effect1_dropShadow"/>
<feBlend mode="normal" in="SourceGraphic" in2="effect1_dropShadow" result="shape"/>
</filter>
<filter id="filter1_d" x="6.63" y="206.367" width="409.875" height="140.946" filterUnits="userSpaceOnUse" color-interpolation-filters="sRGB">
<feFlood flood-opacity="0" result="BackgroundImageFix"/>
<feColorMatrix in="SourceAlpha" type="matrix" values="0 0 0 0 0 0 0 0 0 0 0 0 0 0 0 0 0 0 127 0"/>
<feOffset dy="10"/>
<feGaussianBlur stdDeviation="5"/>
<feColorMatrix type="matrix" values="0 0 0 0 0 0 0 0 0 0 0 0 0 0 0 0 0 0 0.25 0"/>
<feBlend mode="normal" in2="BackgroundImageFix" result="effect1_dropShadow"/>
<feBlend mode="normal" in="SourceGraphic" in2="effect1_dropShadow" result="shape"/>
</filter>
<linearGradient id="paint0_linear" x1="250.5" y1="0" x2="250.5" y2="220" gradientUnits="userSpaceOnUse">
<stop offset="0.328125" stop-color="white"/>
<stop offset="0.682292" stop-color="white"/>
</linearGradient>
</defs>
</svg>
